# xmcd
#
# Track frame offsets:
#	150
#	16015
#	31870
#	50582
#	65895
#	80235
#	97722
#	115282
#	132697
#	150770
#	166900
#	182887
#	199070
#	214317
#	234577
#
# Disc length: 3369 seconds
#
# Revision: 0
# Processed by: cddbd v1.5.1PL2 Copyright (c) Steve Scherf et al.
# Submitted via: audiograbber 1.83.01
#
DISCID=ca0d270f
DTITLE=Music Maestro - MM6273
DYEAR=1900
DGENRE=Karaoke
TTITLE0=Diffie, Joe - Night To Remember, A
TTITLE1=Shedaisy - Little Goodbyes
TTITLE2=Lonestar - Amazed
TTITLE3=Rogers, Kenny - Greatest, The
TTITLE4=Wilkinsons, The - Boy Oh Boy
TTITLE5=Carpenter, Mary Chapin - Almost Home
TTITLE6=Tritt, Travis - Start The Car
TTITLE7=Cyrus, Billy Ray - Give My Heart To You
TTITLE8=Chesney, Kenny - You Had Me From Hello
TTITLE9=Messina, Jo Dee - Lesson In Living
TTITLE10=Chesnutt, Mark - This Heartache Never Sleeps
TTITLE11=Brooks and Dunn - South Of Santa Fe
TTITLE12=Alabama and N Sync - God Must Have Spent A Little More Time On You
TTITLE13=Yearwood, Trisha - I Still Love You More
TTITLE14=Hill, Faith - Secret Of Life, The
EXTD=As Listed In KJ Pro
EXTT0=
EXTT1=
EXTT2=
EXTT3=
EXTT4=
EXTT5=
EXTT6=
EXTT7=
EXTT8=
EXTT9=
EXTT10=
EXTT11=
EXTT12=
EXTT13=
EXTT14=
PLAYORDER=
